<mxfile host="app.diagrams.net" modified="2024-03-17T06:08:59.976Z" agent="Mozilla/5.0 (Windows NT 10.0; Win64; x64) AppleWebKit/537.36 (KHTML, like Gecko) Chrome/122.0.0.0 Safari/537.36" etag="7obLK6j9tld-cJbfROrk" version="24.0.7" type="google">
  <diagram id="R2lEEEUBdFMjLlhIrx00" name="Page-1">
    <mxGraphModel dx="2943" dy="2123" grid="1" gridSize="10" guides="1" tooltips="1" connect="1" arrows="1" fold="1" page="1" pageScale="1" pageWidth="850" pageHeight="1100" math="0" shadow="0" extFonts="Permanent Marker^https://fonts.googleapis.com/css?family=Permanent+Marker">
      <root>
        <mxCell id="0" />
        <mxCell id="1" parent="0" />
        <mxCell id="petqdnCnjnlQzlo2vSYV-2" style="edgeStyle=orthogonalEdgeStyle;rounded=0;orthogonalLoop=1;jettySize=auto;html=1;" parent="1" source="petqdnCnjnlQzlo2vSYV-1" target="petqdnCnjnlQzlo2vSYV-3" edge="1">
          <mxGeometry relative="1" as="geometry">
            <mxPoint x="-70" y="10" as="targetPoint" />
          </mxGeometry>
        </mxCell>
        <mxCell id="vdY1YrOkhGlKxGD-0w-u-1" style="edgeStyle=orthogonalEdgeStyle;rounded=0;orthogonalLoop=1;jettySize=auto;html=1;" edge="1" parent="1" source="petqdnCnjnlQzlo2vSYV-1" target="vdY1YrOkhGlKxGD-0w-u-2">
          <mxGeometry relative="1" as="geometry">
            <mxPoint x="50" y="110" as="targetPoint" />
          </mxGeometry>
        </mxCell>
        <mxCell id="vdY1YrOkhGlKxGD-0w-u-3" style="edgeStyle=orthogonalEdgeStyle;rounded=0;orthogonalLoop=1;jettySize=auto;html=1;exitX=0;exitY=0.5;exitDx=0;exitDy=0;" edge="1" parent="1" source="petqdnCnjnlQzlo2vSYV-1" target="vdY1YrOkhGlKxGD-0w-u-4">
          <mxGeometry relative="1" as="geometry">
            <mxPoint x="-180" y="110" as="targetPoint" />
          </mxGeometry>
        </mxCell>
        <mxCell id="vdY1YrOkhGlKxGD-0w-u-5" style="edgeStyle=orthogonalEdgeStyle;rounded=0;orthogonalLoop=1;jettySize=auto;html=1;exitX=1;exitY=0.25;exitDx=0;exitDy=0;" edge="1" parent="1" source="petqdnCnjnlQzlo2vSYV-1" target="vdY1YrOkhGlKxGD-0w-u-11">
          <mxGeometry relative="1" as="geometry">
            <mxPoint x="20" y="-111.42857142857143" as="targetPoint" />
          </mxGeometry>
        </mxCell>
        <mxCell id="vdY1YrOkhGlKxGD-0w-u-16" style="edgeStyle=orthogonalEdgeStyle;rounded=0;orthogonalLoop=1;jettySize=auto;html=1;exitX=0;exitY=0.25;exitDx=0;exitDy=0;" edge="1" parent="1" source="petqdnCnjnlQzlo2vSYV-1" target="vdY1YrOkhGlKxGD-0w-u-17">
          <mxGeometry relative="1" as="geometry">
            <mxPoint x="-160" y="-110" as="targetPoint" />
          </mxGeometry>
        </mxCell>
        <mxCell id="vdY1YrOkhGlKxGD-0w-u-47" style="edgeStyle=orthogonalEdgeStyle;rounded=0;orthogonalLoop=1;jettySize=auto;html=1;" edge="1" parent="1" source="petqdnCnjnlQzlo2vSYV-1" target="vdY1YrOkhGlKxGD-0w-u-49">
          <mxGeometry relative="1" as="geometry">
            <mxPoint x="-70" y="190" as="targetPoint" />
          </mxGeometry>
        </mxCell>
        <mxCell id="petqdnCnjnlQzlo2vSYV-1" value="Profesor" style="rounded=0;whiteSpace=wrap;html=1;" parent="1" vertex="1">
          <mxGeometry x="-130" y="80" width="120" height="60" as="geometry" />
        </mxCell>
        <mxCell id="petqdnCnjnlQzlo2vSYV-3" value="Asignatura" style="ellipse;whiteSpace=wrap;html=1;" parent="1" vertex="1">
          <mxGeometry x="-130" y="-40" width="120" height="80" as="geometry" />
        </mxCell>
        <mxCell id="vdY1YrOkhGlKxGD-0w-u-2" value="Cedula" style="ellipse;whiteSpace=wrap;html=1;" vertex="1" parent="1">
          <mxGeometry x="40" y="70" width="120" height="80" as="geometry" />
        </mxCell>
        <mxCell id="vdY1YrOkhGlKxGD-0w-u-4" value="Codigo" style="ellipse;whiteSpace=wrap;html=1;" vertex="1" parent="1">
          <mxGeometry x="-290" y="70" width="120" height="80" as="geometry" />
        </mxCell>
        <mxCell id="vdY1YrOkhGlKxGD-0w-u-11" value="Correo" style="ellipse;whiteSpace=wrap;html=1;" vertex="1" parent="1">
          <mxGeometry x="-40" y="-119.99857142857132" width="120" height="80" as="geometry" />
        </mxCell>
        <mxCell id="vdY1YrOkhGlKxGD-0w-u-17" value="Contraseña" style="ellipse;whiteSpace=wrap;html=1;" vertex="1" parent="1">
          <mxGeometry x="-220" y="-110" width="120" height="80" as="geometry" />
        </mxCell>
        <mxCell id="vdY1YrOkhGlKxGD-0w-u-21" style="edgeStyle=orthogonalEdgeStyle;rounded=0;orthogonalLoop=1;jettySize=auto;html=1;" edge="1" parent="1" source="vdY1YrOkhGlKxGD-0w-u-18" target="vdY1YrOkhGlKxGD-0w-u-22">
          <mxGeometry relative="1" as="geometry">
            <mxPoint x="540" y="370" as="targetPoint" />
          </mxGeometry>
        </mxCell>
        <mxCell id="vdY1YrOkhGlKxGD-0w-u-23" style="edgeStyle=orthogonalEdgeStyle;rounded=0;orthogonalLoop=1;jettySize=auto;html=1;" edge="1" parent="1" source="vdY1YrOkhGlKxGD-0w-u-18" target="vdY1YrOkhGlKxGD-0w-u-24">
          <mxGeometry relative="1" as="geometry">
            <mxPoint x="680" y="470" as="targetPoint" />
          </mxGeometry>
        </mxCell>
        <mxCell id="vdY1YrOkhGlKxGD-0w-u-25" style="edgeStyle=orthogonalEdgeStyle;rounded=0;orthogonalLoop=1;jettySize=auto;html=1;" edge="1" parent="1" source="vdY1YrOkhGlKxGD-0w-u-18" target="vdY1YrOkhGlKxGD-0w-u-26">
          <mxGeometry relative="1" as="geometry">
            <mxPoint x="680" y="250" as="targetPoint" />
          </mxGeometry>
        </mxCell>
        <mxCell id="vdY1YrOkhGlKxGD-0w-u-33" style="edgeStyle=orthogonalEdgeStyle;rounded=0;orthogonalLoop=1;jettySize=auto;html=1;exitX=1;exitY=0.25;exitDx=0;exitDy=0;" edge="1" parent="1" source="vdY1YrOkhGlKxGD-0w-u-18">
          <mxGeometry relative="1" as="geometry">
            <mxPoint x="780" y="180" as="targetPoint" />
          </mxGeometry>
        </mxCell>
        <mxCell id="vdY1YrOkhGlKxGD-0w-u-18" value="Estudiante" style="rounded=0;whiteSpace=wrap;html=1;" vertex="1" parent="1">
          <mxGeometry x="620" y="340" width="120" height="60" as="geometry" />
        </mxCell>
        <mxCell id="vdY1YrOkhGlKxGD-0w-u-22" value="Codigo de colegio" style="ellipse;whiteSpace=wrap;html=1;" vertex="1" parent="1">
          <mxGeometry x="440" y="330" width="120" height="80" as="geometry" />
        </mxCell>
        <mxCell id="vdY1YrOkhGlKxGD-0w-u-24" value="Correo" style="ellipse;whiteSpace=wrap;html=1;" vertex="1" parent="1">
          <mxGeometry x="620" y="440" width="120" height="80" as="geometry" />
        </mxCell>
        <mxCell id="vdY1YrOkhGlKxGD-0w-u-26" value="Contraseña" style="ellipse;whiteSpace=wrap;html=1;" vertex="1" parent="1">
          <mxGeometry x="620" y="210" width="120" height="80" as="geometry" />
        </mxCell>
        <mxCell id="vdY1YrOkhGlKxGD-0w-u-28" style="edgeStyle=orthogonalEdgeStyle;rounded=0;orthogonalLoop=1;jettySize=auto;html=1;" edge="1" parent="1" source="vdY1YrOkhGlKxGD-0w-u-27">
          <mxGeometry relative="1" as="geometry">
            <mxPoint x="300" y="-330" as="targetPoint" />
          </mxGeometry>
        </mxCell>
        <mxCell id="vdY1YrOkhGlKxGD-0w-u-43" style="edgeStyle=orthogonalEdgeStyle;rounded=0;orthogonalLoop=1;jettySize=auto;html=1;exitX=1;exitY=0.5;exitDx=0;exitDy=0;" edge="1" parent="1" source="vdY1YrOkhGlKxGD-0w-u-27" target="vdY1YrOkhGlKxGD-0w-u-44">
          <mxGeometry relative="1" as="geometry">
            <mxPoint x="850" y="-440" as="targetPoint" />
          </mxGeometry>
        </mxCell>
        <mxCell id="vdY1YrOkhGlKxGD-0w-u-27" value="Materias" style="rounded=0;whiteSpace=wrap;html=1;" vertex="1" parent="1">
          <mxGeometry x="350" y="-360" width="120" height="60" as="geometry" />
        </mxCell>
        <mxCell id="vdY1YrOkhGlKxGD-0w-u-29" value="Codigo" style="ellipse;whiteSpace=wrap;html=1;" vertex="1" parent="1">
          <mxGeometry x="180" y="-370" width="120" height="80" as="geometry" />
        </mxCell>
        <mxCell id="vdY1YrOkhGlKxGD-0w-u-36" style="edgeStyle=orthogonalEdgeStyle;rounded=0;orthogonalLoop=1;jettySize=auto;html=1;" edge="1" parent="1" source="vdY1YrOkhGlKxGD-0w-u-35">
          <mxGeometry relative="1" as="geometry">
            <mxPoint x="780" y="60" as="targetPoint" />
          </mxGeometry>
        </mxCell>
        <mxCell id="vdY1YrOkhGlKxGD-0w-u-35" value="Tiene" style="rhombus;whiteSpace=wrap;html=1;" vertex="1" parent="1">
          <mxGeometry x="740" y="100" width="80" height="80" as="geometry" />
        </mxCell>
        <mxCell id="vdY1YrOkhGlKxGD-0w-u-39" style="edgeStyle=orthogonalEdgeStyle;rounded=0;orthogonalLoop=1;jettySize=auto;html=1;" edge="1" parent="1" source="vdY1YrOkhGlKxGD-0w-u-38" target="vdY1YrOkhGlKxGD-0w-u-40">
          <mxGeometry relative="1" as="geometry">
            <mxPoint x="950" y="-60" as="targetPoint" />
          </mxGeometry>
        </mxCell>
        <mxCell id="vdY1YrOkhGlKxGD-0w-u-41" style="edgeStyle=orthogonalEdgeStyle;rounded=0;orthogonalLoop=1;jettySize=auto;html=1;exitX=0;exitY=0.5;exitDx=0;exitDy=0;" edge="1" parent="1" source="vdY1YrOkhGlKxGD-0w-u-38" target="vdY1YrOkhGlKxGD-0w-u-42">
          <mxGeometry relative="1" as="geometry">
            <mxPoint x="670" y="-60" as="targetPoint" />
          </mxGeometry>
        </mxCell>
        <mxCell id="vdY1YrOkhGlKxGD-0w-u-38" value="Curso" style="rounded=0;whiteSpace=wrap;html=1;" vertex="1" parent="1">
          <mxGeometry x="720" width="120" height="60" as="geometry" />
        </mxCell>
        <mxCell id="vdY1YrOkhGlKxGD-0w-u-40" value="Aprobado" style="ellipse;whiteSpace=wrap;html=1;" vertex="1" parent="1">
          <mxGeometry x="860" y="-100" width="120" height="80" as="geometry" />
        </mxCell>
        <mxCell id="vdY1YrOkhGlKxGD-0w-u-42" value="Desaprobado" style="ellipse;whiteSpace=wrap;html=1;" vertex="1" parent="1">
          <mxGeometry x="570" y="-100" width="120" height="80" as="geometry" />
        </mxCell>
        <mxCell id="vdY1YrOkhGlKxGD-0w-u-45" style="edgeStyle=orthogonalEdgeStyle;rounded=0;orthogonalLoop=1;jettySize=auto;html=1;entryX=0.5;entryY=0;entryDx=0;entryDy=0;" edge="1" parent="1" source="vdY1YrOkhGlKxGD-0w-u-44" target="vdY1YrOkhGlKxGD-0w-u-38">
          <mxGeometry relative="1" as="geometry" />
        </mxCell>
        <mxCell id="vdY1YrOkhGlKxGD-0w-u-44" value="Es un&amp;nbsp;" style="rhombus;whiteSpace=wrap;html=1;" vertex="1" parent="1">
          <mxGeometry x="740" y="-370" width="80" height="80" as="geometry" />
        </mxCell>
        <mxCell id="vdY1YrOkhGlKxGD-0w-u-50" style="edgeStyle=orthogonalEdgeStyle;rounded=0;orthogonalLoop=1;jettySize=auto;html=1;" edge="1" parent="1" source="vdY1YrOkhGlKxGD-0w-u-49" target="vdY1YrOkhGlKxGD-0w-u-51">
          <mxGeometry relative="1" as="geometry">
            <mxPoint x="-70" y="360" as="targetPoint" />
          </mxGeometry>
        </mxCell>
        <mxCell id="vdY1YrOkhGlKxGD-0w-u-49" value="Monta" style="rhombus;whiteSpace=wrap;html=1;" vertex="1" parent="1">
          <mxGeometry x="-110" y="200" width="80" height="80" as="geometry" />
        </mxCell>
        <mxCell id="vdY1YrOkhGlKxGD-0w-u-52" style="edgeStyle=orthogonalEdgeStyle;rounded=0;orthogonalLoop=1;jettySize=auto;html=1;" edge="1" parent="1" source="vdY1YrOkhGlKxGD-0w-u-51" target="vdY1YrOkhGlKxGD-0w-u-53">
          <mxGeometry relative="1" as="geometry">
            <mxPoint x="-250" y="360" as="targetPoint" />
          </mxGeometry>
        </mxCell>
        <mxCell id="vdY1YrOkhGlKxGD-0w-u-54" style="edgeStyle=orthogonalEdgeStyle;rounded=0;orthogonalLoop=1;jettySize=auto;html=1;" edge="1" parent="1" source="vdY1YrOkhGlKxGD-0w-u-51" target="vdY1YrOkhGlKxGD-0w-u-55">
          <mxGeometry relative="1" as="geometry">
            <mxPoint x="70" y="360" as="targetPoint" />
          </mxGeometry>
        </mxCell>
        <mxCell id="vdY1YrOkhGlKxGD-0w-u-56" style="edgeStyle=orthogonalEdgeStyle;rounded=0;orthogonalLoop=1;jettySize=auto;html=1;" edge="1" parent="1" source="vdY1YrOkhGlKxGD-0w-u-51" target="vdY1YrOkhGlKxGD-0w-u-57">
          <mxGeometry relative="1" as="geometry">
            <mxPoint x="-70" y="450" as="targetPoint" />
          </mxGeometry>
        </mxCell>
        <mxCell id="vdY1YrOkhGlKxGD-0w-u-58" style="edgeStyle=orthogonalEdgeStyle;rounded=0;orthogonalLoop=1;jettySize=auto;html=1;exitX=1;exitY=0.25;exitDx=0;exitDy=0;" edge="1" parent="1" source="vdY1YrOkhGlKxGD-0w-u-51">
          <mxGeometry relative="1" as="geometry">
            <mxPoint x="330" y="50" as="targetPoint" />
          </mxGeometry>
        </mxCell>
        <mxCell id="vdY1YrOkhGlKxGD-0w-u-51" value="Contenido" style="rounded=0;whiteSpace=wrap;html=1;" vertex="1" parent="1">
          <mxGeometry x="-130" y="330" width="120" height="60" as="geometry" />
        </mxCell>
        <mxCell id="vdY1YrOkhGlKxGD-0w-u-53" value="Fecha" style="ellipse;whiteSpace=wrap;html=1;" vertex="1" parent="1">
          <mxGeometry x="-310" y="320" width="120" height="80" as="geometry" />
        </mxCell>
        <mxCell id="vdY1YrOkhGlKxGD-0w-u-55" value="Duracion" style="ellipse;whiteSpace=wrap;html=1;" vertex="1" parent="1">
          <mxGeometry x="40" y="370" width="120" height="80" as="geometry" />
        </mxCell>
        <mxCell id="vdY1YrOkhGlKxGD-0w-u-57" value="Recursos" style="ellipse;whiteSpace=wrap;html=1;" vertex="1" parent="1">
          <mxGeometry x="-130" y="430" width="120" height="80" as="geometry" />
        </mxCell>
        <mxCell id="vdY1YrOkhGlKxGD-0w-u-60" style="edgeStyle=orthogonalEdgeStyle;rounded=0;orthogonalLoop=1;jettySize=auto;html=1;exitX=0.5;exitY=0;exitDx=0;exitDy=0;entryX=0.5;entryY=1;entryDx=0;entryDy=0;" edge="1" parent="1" source="vdY1YrOkhGlKxGD-0w-u-59" target="vdY1YrOkhGlKxGD-0w-u-27">
          <mxGeometry relative="1" as="geometry">
            <mxPoint x="600" y="-400" as="targetPoint" />
          </mxGeometry>
        </mxCell>
        <mxCell id="vdY1YrOkhGlKxGD-0w-u-59" value="De Ciertas" style="rhombus;whiteSpace=wrap;html=1;" vertex="1" parent="1">
          <mxGeometry x="290" y="-30" width="80" height="80" as="geometry" />
        </mxCell>
      </root>
    </mxGraphModel>
  </diagram>
</mxfile>
